:FULLY-SPECIFIED
:FORCE-ALL-JOINTS-BE-3DOF
:DEGREES
1121
root 1.06893 14.587 -28.2265 3.00369 1.2205 3.39331
lfemur -31.041 12.2438 -22.705
ltibia 70.1576 -0 0
lfoot -24.8839 28.5357 -0.123823
ltoes -14.1985 0 0
rfemur -44.9251 -12.1006 12.9982
rtibia 88.6817 -0 0
rfoot -5.6794 -2.80278 0.352223
rtoes -11.6159 0 0
lowerback 14.1398 1.30162 -9.57044
upperback -0.774289 0.22338 1.18549
thorax -8.86653 0.592594 6.72373
lowerneck -5.12161 -2.03381 -4.27708
upperneck 4.42419 -2.64572 4.63069
head 2.77326 -1.32009 1.90236
lclavicle 0 0 0
lhumerus 37.1281 -28.7927 57.2167
lradius 89.4429 -0 0
lwrist 37.5896 0 0
lhand -27.5481 29.0224 -1.37049
lfingers 0 0 0
lthumb -0.953833 58.6903 -1.34296
rclavicle 0 0 0
rhumerus -9.59141 28.5274 -71.1386
rradius 87.9582 -0 0
rwrist -28.5635 0 0
rhand -25.6575 -47.3013 -0.318486
rfingers 0 0 0
rthumb 0.878426 -77.0694 -0.318333
1122
root 1.03585 14.5821 -28.0198 2.63726 2.49897 3.56072
lfemur -29.3326 12.022 -22.2193
ltibia 69.4886 -0 0
lfoot -25.1259 28.8229 -0.130262
ltoes -14.2279 0 0
rfemur -45.0504 -12.1338 12.5243
rtibia 87.1526 -0 0
rfoot -5.23159 -2.36099 0.370566
rtoes -11.2051 0 0
lowerback 14.0826 1.41486 -9.65029
upperback -0.735565 0.35837 1.06061
thorax -8.81579 0.653837 6.60319
lowerneck -4.953 -2.52631 -4.69877
upperneck 4.62192 -3.30921 4.99457
head 2.86914 -1.65111 2.04573
lclavicle 0 0 0
lhumerus 32.1214 -30.1169 59.6067
lradius 90.2792 -0 0
lwrist 38.327 0 0
lhand -26.7214 28.0882 -1.44232
lfingers 0 0 0
lthumb -0.155784 57.742 -1.41334
rclavicle 0 0 0
rhumerus -5.26729 28.1246 -68.1508
rradius 88.0801 -0 0
rwrist -26.444 0 0
rhand -26.3379 -47.0383 -0.335084
rfingers 0 0 0
rthumb 0.221487 -76.7972 -0.334921
1123
root 1.00174 14.5765 -27.8131 2.26797 3.80025 3.72279
lfemur -27.5987 11.7821 -21.7329
ltibia 68.8081 -0 0
lfoot -25.3721 29.115 -0.135567
ltoes -14.2579 0 0
rfemur -45.1775 -12.1686 12.0423
rtibia 85.5975 -0 0
rfoot -4.77603 -1.91156 0.385679
rtoes -10.7874 0 0
lowerback 14.0243 1.52994 -9.73162
upperback -0.696485 0.495743 0.933684
thorax -8.76432 0.716232 6.48066
lowerneck -4.77774 -3.0259 -5.1293
upperneck 4.81883 -3.98526 5.36255
head 2.9658 -1.988 2.19099
lclavicle 0 0 0
lhumerus 26.9022 -31.2696 62.1977
lradius 91.1296 -0 0
lwrist 39.077 0 0
lhand -25.8795 27.1372 -1.50153
lfingers 0 0 0
lthumb 0.656945 56.7768 -1.47135
rclavicle 0 0 0
rhumerus -0.920367 27.514 -65.1701
rradius 88.2039 -0 0
rwrist -24.2885 0 0
rhand -27.0301 -46.7707 -0.34876
rfingers 0 0 0
rthumb -0.446701 -76.5201 -0.348588
1124
root 0.96677 14.5702 -27.6071 1.89706 5.11918 3.87863
lfemur -25.8465 11.5245 -21.2485
ltibia 68.119 -0 0
lfoot -25.6214 29.4109 -0.13966
ltoes -14.2882 0 0
rfemur -45.3059 -12.2049 11.5542
rtibia 84.0225 -0 0
rfoot -4.31455 -1.45628 0.397341
rtoes -10.3644 0 0
lowerback 13.965 1.64641 -9.81412
upperback -0.657214 0.634957 0.805234
thorax -8.71233 0.779535 6.35662
lowerneck -4.59632 -3.53051 -5.56711
upperneck 5.01399 -4.6712 5.73319
head 3.06286 -2.32945 2.33756
lclavicle 0 0 0
lhumerus 21.4987 -32.2231 64.9669
lradius 91.991 -0 0
lwrist 39.8365 0 0
lhand -25.026 26.1732 -1.54725
lfingers 0 0 0
lthumb 1.48094 55.7984 -1.51614
rclavicle 0 0 0
rhumerus 3.41188 26.6953 -62.2321
rradius 88.3294 -0 0
rwrist -22.1055 0 0
rhand -27.7311 -46.4995 -0.359314
rfingers 0 0 0
rthumb -1.12348 -76.2394 -0.359136
1125
root 0.931104 14.5633 -27.4022 1.52572 6.45056 4.02749
lfemur -24.0829 11.2502 -20.7688
ltibia 67.4239 -0 0
lfoot -25.8729 29.7093 -0.142484
ltoes -14.3188 0 0
rfemur -45.4351 -12.2426 11.0618
rtibia 82.4339 -0 0
rfoot -3.84898 -0.996965 0.405389
rtoes -9.93768 0 0
lowerback 13.9051 1.76381 -9.89745
upperback -0.617917 0.77547 0.675761
thorax -8.66002 0.843501 6.23156
lowerneck -4.40931 -4.03809 -6.0106
upperneck 5.20653 -5.36437 6.10506
head 3.1599 -2.67411 2.48485
lclavicle 0 0 0
lhumerus 15.9478 -32.9538 67.8821
lradius 92.8598 -0 0
lwrist 40.6026 0 0
lhand -24.1644 25.2002 -1.57881
lfingers 0 0 0
lthumb 2.31277 54.811 -1.54707
rclavicle 0 0 0
rhumerus 7.69458 25.6736 -59.3698
rradius 88.456 -0 0
rwrist -19.9036 0 0
rhand -28.4382 -46.2258 -0.366598
rfingers 0 0 0
rthumb -1.80618 -75.9561 -0.366415
1126
root 0.894913 14.5559 -27.1992 1.15504 7.78918 4.16872
lfemur -22.3151 10.9601 -20.2961
ltibia 66.7255 -0 0
lfoot -26.1256 30.0092 -0.144003
ltoes -14.3495 0 0
rfemur -45.5647 -12.2816 10.5671
rtibia 80.8378 -0 0
rfoot -3.38116 -0.53542 0.409716
rtoes -9.50894 0 0
lowerback 13.8447 1.88167 -9.98132
upperback -0.578753 0.916738 0.545767
thorax -8.60761 0.907886 6.10596
lowerneck -4.21732 -4.5466 -6.45815
upperneck 5.39566 -6.06205 6.4768
head 3.25653 -3.02065 2.6323
lclavicle 0 0 0
lhumerus 10.294 -33.4435 70.903
lradius 93.7327 -0 0
lwrist 41.3723 0 0
lhand -23.2982 24.2223 -1.59578
lfingers 0 0 0
lthumb 3.14897 53.8185 -1.56369
rclavicle 0 0 0
rhumerus 11.8968 24.459 -56.6123
rradius 88.5831 -0 0
rwrist -17.6911 0 0
rhand -29.1488 -45.9508 -0.370514
rfingers 0 0 0
rthumb -2.49215 -75.6714 -0.370329
1127
root 0.858365 14.548 -26.9984 0.786098 9.12983 4.30177
lfemur -20.5501 10.6556 -19.8328
ltibia 66.0265 -0 0
lfoot -26.3785 30.3093 -0.144198
ltoes -14.3803 0 0
rfemur -45.694 -12.3217 10.072
rtibia 79.2402 -0 0
rfoot -2.91291 -0.0734601 0.410273
rtoes -9.07984 0 0
lowerback 13.784 1.99954 -10.0654
upperback -0.539874 1.05822 0.415752
thorax -8.55529 0.972441 5.98031
lowerneck -4.02104 -5.05403 -6.90814
upperneck 5.58064 -6.76154 6.84703
head 3.35238 -3.36773 2.77934
lclavicle 0 0 0
lhumerus 4.58852 -33.6807 73.9824
lradius 94.6064 -0 0
lwrist 42.1427 0 0
lhand -22.4312 23.2433 -1.59796
lfingers 0 0 0
lthumb 3.98604 52.8251 -1.56583
rclavicle 0 0 0
rhumerus 15.9924 23.0656 -53.9841
rradius 88.7104 -0 0
rwrist -15.4768 0 0
rhand -29.8599 -45.6755 -0.371019
rfingers 0 0 0
rthumb -3.17872 -75.3864 -0.370833
1128
root 0.82163 14.5397 -26.8006 0.419929 10.4673 4.42622
lfemur -18.7947 10.3382 -19.3811
ltibia 65.3296 -0 0
lfoot -26.6307 30.6085 -0.143074
ltoes -14.411 0 0
rfemur -45.8226 -12.3627 9.57844
rtibia 77.6475 -0 0
rfoot -2.44608 0.387104 0.407071
rtoes -8.65202 0 0
lowerback 13.7234 2.11698 -10.1493
upperback -0.50143 1.19936 0.286217
thorax -8.50326 1.03692 5.85509
lowerneck -3.8212 -5.55839 -7.35888
upperneck 5.76081 -7.4601 7.21445
head 3.44709 -3.71402 2.92542
lclavicle 0 0 0
lhumerus -1.11413 -33.6617 77.0695
lradius 95.4774 -0 0
lwrist 42.9108 0 0
lhand -21.5669 22.2674 -1.5854
lfingers 0 0 0
lthumb 4.82052 51.8346 -1.55353
rclavicle 0 0 0
rhumerus 19.9603 21.5112 -51.5043
rradius 88.8373 -0 0
rwrist -13.2692 0 0
rhand -30.5689 -45.401 -0.36812
rfingers 0 0 0
rthumb -3.86322 -75.1023 -0.367936
1129
root 0.784875 14.531 -26.6062 0.0575463 11.7963 4.54174
lfemur -17.0556 10.0097 -18.943
ltibia 64.6374 -0 0
lfoot -26.8811 30.9057 -0.140655
ltoes -14.4414 0 0
rfemur -45.9499 -12.4046 9.08826
rtibia 76.0657 -0 0
rfoot -1.98249 0.84446 0.400176
rtoes -8.22714 0 0
lowerback 13.6631 2.23352 -10.2328
upperback -0.463564 1.33961 0.157659
thorax -8.45174 1.10106 5.73079
lowerneck -3.61862 -6.05771 -7.80866
upperneck 5.93556 -8.15497 7.57775
head 3.54032 -4.05817 3.06998
lclavicle 0 0 0
lhumerus -6.75874 -33.3907 80.113
lradius 96.3425 -0 0
lwrist 43.6736 0 0
lhand -20.7088 21.2985 -1.55837
lfingers 0 0 0
lthumb 5.64892 50.8513 -1.52704
rclavicle 0 0 0
rhumerus 23.7848 19.8163 -49.1866
rradius 88.9633 -0 0
rwrist -11.0767 0 0
rhand -31.273 -45.1285 -0.361881
rfingers 0 0 0
rthumb -4.54299 -74.8202 -0.3617
1130
root 0.74827 14.5221 -26.4158 -0.30004 13.1116 4.6481
lfemur -15.3397 9.67205 -18.5201
ltibia 63.9528 -0 0
lfoot -27.1288 31.1996 -0.136984
ltoes -14.4715 0 0
rfemur -46.0756 -12.4471 8.60341
rtibia 74.501 -0 0
rfoot -1.524 1.2968 0.389717
rtoes -7.80687 0 0
lowerback 13.6032 2.34871 -10.3155
upperback -0.426416 1.47843 0.0305756
thorax -8.4009 1.16462 5.60789
lowerneck -3.41417 -6.55006 -8.25576
upperneck 6.10433 -8.84339 7.93566
head 3.63172 -4.39882 3.21248
lclavicle 0 0 0
lhumerus -12.2929 -32.8793 83.0647
lradius 97.1982 -0 0
lwrist 44.4282 0 0
lhand -19.8606 20.3406 -1.51736
lfingers 0 0 0
lthumb 6.46777 49.8792 -1.48686
rclavicle 0 0 0
rhumerus 27.4545 18.0031 -47.0397
rradius 89.0879 -0 0
rwrist -8.90789 0 0
rhand -31.9695 -44.8591 -0.352414
rfingers 0 0 0
rthumb -5.21537 -74.5413 -0.35224
1131
root 0.711984 14.513 -26.2299 -0.651814 14.4079 4.74518
lfemur -13.6535 9.32738 -18.1142
ltibia 63.2783 -0 0
lfoot -27.3728 31.4892 -0.132125
ltoes -14.5012 0 0
rfemur -46.199 -12.4899 8.12578
rtibia 72.9596 -0 0
rfoot -1.07241 1.74231 0.375874
rtoes -7.39284 0 0
lowerback 13.544 2.4621 -10.3972
upperback -0.390119 1.61527 -0.0945378
thorax -8.35096 1.22734 5.48686
lowerneck -3.20877 -7.03351 -8.69837
upperneck 6.26665 -9.52257 8.28692
head 3.72097 -4.73462 3.35241
lclavicle 0 0 0
lhumerus -17.6697 -32.1463 85.8823
lradius 98.0412 -0 0
lwrist 45.1715 0 0
lhand -19.0258 19.3976 -1.46311
lfingers 0 0 0
lthumb 7.27365 48.9221 -1.43371
rclavicle 0 0 0
rhumerus 30.9624 16.0951 -45.0679
rradius 89.2107 -0 0
rwrist -6.77138 0 0
rhand -32.6555 -44.5937 -0.339887
rfingers 0 0 0
rthumb -5.8777 -74.2666 -0.339721
1132
root 0.676183 14.5038 -26.0493 -0.996739 15.68 4.83295
lfemur -12.0036 8.978 -17.7265
ltibia 62.6168 -0 0
lfoot -27.6121 31.7731 -0.126161
ltoes -14.5303 0 0
rfemur -46.3197 -12.5329 7.65728
rtibia 71.4477 -0 0
rfoot -0.629569 2.1792 0.358885
rtoes -6.98671 0 0
lowerback 13.4858 2.57325 -10.4773
upperback -0.354802 1.74957 -0.217187
thorax -8.30209 1.28897 5.3682
lowerneck -3.00342 -7.50619 -9.1347
upperneck 6.42209 -10.1897 8.63027
head 3.80776 -5.06422 3.48921
lclavicle 0 0 0
lhumerus -22.8497 -31.2159 88.5317
lradius 98.8681 -0 0
lwrist 45.9007 0 0
lhand -18.208 18.4736 -1.39657
lfingers 0 0 0
lthumb 8.06316 47.9842 -1.36851
rclavicle 0 0 0
rhumerus 34.3042 14.1164 -43.2719
rradius 89.3312 -0 0
rwrist -4.67566 0 0
rhand -33.3284 -44.3336 -0.324514
rfingers 0 0 0
rthumb -6.52731 -73.9974 -0.324357
1133
root 0.641038 14.4946 -25.8743 -1.33375 16.9227 4.91147
lfemur -10.3963 8.62636 -17.3583
ltibia 61.9708 -0 0
lfoot -27.8457 32.0504 -0.119193
ltoes -14.5588 0 0
rfemur -46.4373 -12.5758 7.19983
rtibia 69.9713 -0 0
rfoot -0.197289 2.60566 0.339039
rtoes -6.59015 0 0
lowerback 13.4288 2.6817 -10.5557
upperback -0.320593 1.88079 -0.336877
thorax -8.2545 1.34924 5.25238
lowerneck -2.79919 -7.96622 -9.56287
upperneck 6.57026 -10.8421 8.96448
head 3.89178 -5.38626 3.62238
lclavicle 0 0 0
lhumerus -27.8018 -30.1166 90.9879
lradius 99.6755 -0 0
lwrist 46.6127 0 0
lhand -17.4106 17.5723 -1.31889
lfingers 0 0 0
lthumb 8.83292 47.0693 -1.2924
rclavicle 0 0 0
rhumerus 37.4782 12.0913 -41.6489
rradius 89.4488 -0 0
rwrist -2.62927 0 0
rhand -33.9854 -44.0799 -0.306556
rfingers 0 0 0
rthumb -7.16155 -73.7346 -0.306411
